M48
; DRILL file {KiCad 7.0.1} date Sun Apr  2 21:08:28 2023
; FORMAT={-:-/ absolute / inch / decimal}
; #@! TF.CreationDate,2023-04-02T21:08:28+02:00
; #@! TF.GenerationSoftware,Kicad,Pcbnew,7.0.1
; #@! TF.FileFunction,Plated,1,2,PTH
FMAT,2
INCH
; #@! TA.AperFunction,Plated,PTH,ViaDrill
T1C0.0157
; #@! TA.AperFunction,Plated,PTH,ComponentDrill
T2C0.0315
; #@! TA.AperFunction,Plated,PTH,ComponentDrill
T3C0.0394
; #@! TA.AperFunction,Plated,PTH,ComponentDrill
T4C0.1102
%
G90
G05
T1
X1.875Y-4.4
X1.9Y-2.825
X1.9Y-3.625
X1.975Y-5.5
X2.0Y-5.075
X2.025Y-5.85
X2.05Y-1.3
X2.125Y-1.6
X2.25Y-2.0
X2.275Y-1.6
X2.3Y-2.45
X2.3Y-4.4
X2.35Y-2.25
X2.35Y-4.45
X2.4Y-2.15
X2.4Y-4.35
X2.45Y-2.35
X2.45Y-4.3
X2.45Y-5.125
X2.5Y-2.4
X2.5Y-4.25
X2.55Y-2.5
X2.55Y-4.2
X2.6Y-2.3
X2.6Y-4.15
X2.625Y-1.3
X2.625Y-5.85
X2.65Y-1.775
X2.65Y-4.45
X2.65Y-4.55
X2.7Y-4.1
X2.7Y-5.0
X2.75Y-2.625
X2.85Y-4.225
X3.0Y-2.9
X3.0Y-5.1
X3.05Y-2.85
X3.05Y-5.0
X3.1Y-3.0
X3.1Y-4.9
X3.15Y-2.95
X3.15Y-4.8
X3.2Y-3.1
X3.2Y-4.7
X3.25Y-3.05
X3.25Y-4.6
X3.275Y-1.275
X3.3Y-1.8
X3.3Y-3.2
X3.3Y-4.5
X3.35Y-3.15
X3.35Y-4.4
X3.4Y-2.6
X3.425Y-5.85
X3.45Y-3.15
X3.45Y-3.45
X3.5Y-3.2
X3.5Y-3.5
X3.55Y-3.25
X3.55Y-3.4
X3.55Y-4.225
X3.6Y-3.3
X3.6Y-3.5
X3.625Y-3.0
X3.75Y-3.45
X3.75Y-3.75
X3.8Y-3.5
X3.8Y-3.8
X3.85Y-3.55
X3.85Y-3.75
X3.9Y-3.6
X3.9Y-4.0
X3.95Y-3.65
X3.95Y-3.85
X3.975Y-1.75
X3.975Y-2.65
X4.0Y-1.275
X4.0Y-3.7
X4.0Y-3.9
X4.05Y-3.75
X4.05Y-3.9
X4.05Y-5.525
X4.1Y-4.2
X4.275Y-3.0
X4.575Y-4.225
X4.6Y-1.275
X5.1Y-2.95
X5.15Y-1.725
X5.15Y-4.2
X5.35Y-2.0
X5.35Y-5.4
X5.4Y-1.9
X5.4Y-5.35
X5.425Y-5.825
X5.45Y-2.1
X5.45Y-5.25
X5.475Y-1.275
X5.5Y-2.4
X5.5Y-5.3
X5.775Y-2.95
X5.775Y-5.425
X5.8Y-4.2
X6.175Y-1.275
X6.325Y-5.825
X6.4Y-2.95
X6.4Y-4.85
X6.45Y-2.75
X6.45Y-4.95
X6.5Y-2.85
X6.5Y-4.4
X6.6Y-2.25
X6.625Y-1.8
X6.65Y-2.175
X6.7Y-2.05
X6.775Y-2.2
X6.8Y-3.925
X6.85Y-2.2
X6.85Y-2.3
X6.875Y-5.45
X6.9Y-4.85
X6.95Y-5.825
X7.025Y-1.275
X7.025Y-2.4
X7.35Y-5.675
X7.475Y-3.4
T2
X4.1807Y-3.15
X4.1807Y-3.25
X4.1807Y-3.35
X4.1807Y-3.45
X4.1807Y-3.55
X4.1807Y-3.65
X4.1807Y-3.75
X4.1807Y-3.85
X4.1807Y-3.95
X4.25Y-1.9
X4.25Y-2.0
X4.25Y-2.1
X4.25Y-2.2
X4.25Y-2.3
X4.25Y-2.4
X4.25Y-2.5
X4.25Y-2.6
X4.25Y-2.7
X4.4744Y-5.5
X4.55Y-3.15
X4.55Y-3.25
X4.55Y-3.35
X4.55Y-3.45
X4.55Y-3.55
X4.55Y-3.65
X4.55Y-3.75
X4.55Y-3.85
X4.55Y-3.95
X4.55Y-4.05
X4.5594Y-1.9
X4.5594Y-2.0
X4.5594Y-2.1
X4.5594Y-2.2
X4.5594Y-2.3
X4.5594Y-2.4
X4.5594Y-2.5
X4.5594Y-2.6
X4.5594Y-2.7
X4.5594Y-2.8
X4.5728Y-5.5
X4.6Y-1.7
X4.6031Y-3.0
X4.7969Y-1.7
X4.8Y-3.0
X4.85Y-3.15
X4.85Y-3.25
X4.85Y-3.35
X4.85Y-3.45
X4.85Y-3.55
X4.85Y-3.65
X4.85Y-3.75
X4.85Y-3.85
X4.85Y-3.95
X4.85Y-4.05
X4.8594Y-1.9
X4.8594Y-2.0
X4.8594Y-2.1
X4.8594Y-2.2
X4.8594Y-2.3
X4.8594Y-2.4
X4.8594Y-2.5
X4.8594Y-2.6
X4.8594Y-2.7
X4.8594Y-2.8
X5.14Y-2.0
X5.14Y-2.1
X5.14Y-2.2
X5.14Y-2.3
X5.14Y-2.4
X5.14Y-2.5
X5.14Y-2.6
X5.14Y-2.7
X5.14Y-2.8
X5.64Y-1.9
X5.64Y-2.0
X5.64Y-2.1
X5.64Y-2.2
X5.64Y-2.3
X5.64Y-2.4
X5.64Y-2.5
X5.64Y-2.6
X5.64Y-2.7
X5.64Y-3.15
X5.64Y-3.25
X5.64Y-3.35
X5.64Y-3.45
X5.64Y-3.55
X5.64Y-3.65
X5.64Y-3.75
X5.64Y-3.85
X5.64Y-3.95
X5.64Y-4.4
X5.64Y-4.5
X5.64Y-4.6
X5.64Y-4.7
X5.64Y-4.8
X5.64Y-4.9
X5.64Y-5.0
X5.64Y-5.1
X5.64Y-5.2
X6.0106Y-3.15
X6.0106Y-3.25
X6.0106Y-3.35
X6.0106Y-3.45
X6.0106Y-3.55
X6.0106Y-3.65
X6.0106Y-3.75
X6.0106Y-3.85
X6.0106Y-3.95
X6.0106Y-4.05
X6.02Y-1.9
X6.02Y-2.0
X6.02Y-2.1
X6.02Y-2.2
X6.02Y-2.3
X6.02Y-2.4
X6.02Y-2.5
X6.02Y-2.6
X6.02Y-2.7
X6.02Y-2.8
X6.02Y-4.4
X6.02Y-4.5
X6.02Y-4.6
X6.02Y-4.7
X6.02Y-4.8
X6.02Y-4.9
X6.02Y-5.0
X6.02Y-5.1
X6.02Y-5.2
X6.02Y-5.3
X6.05Y-4.25
X6.0516Y-1.7
X6.0531Y-3.0
X6.0531Y-5.5
X6.2469Y-4.25
X6.2484Y-1.7
X6.25Y-3.0
X6.25Y-5.5
X6.3106Y-3.15
X6.3106Y-3.25
X6.3106Y-3.35
X6.3106Y-3.45
X6.3106Y-3.55
X6.3106Y-3.65
X6.3106Y-3.75
X6.3106Y-3.85
X6.3106Y-3.95
X6.3106Y-4.05
X6.32Y-1.9
X6.32Y-2.0
X6.32Y-2.1
X6.32Y-2.2
X6.32Y-2.3
X6.32Y-2.4
X6.32Y-2.5
X6.32Y-2.6
X6.32Y-2.7
X6.32Y-2.8
X6.32Y-4.4
X6.32Y-4.5
X6.32Y-4.6
X6.32Y-4.7
X6.32Y-4.8
X6.32Y-4.9
X6.32Y-5.0
X6.32Y-5.1
X6.32Y-5.2
X6.32Y-5.3
T3
X2.0Y-2.4
X2.0Y-2.5
X2.0Y-2.6
X2.0Y-2.7
X2.0Y-2.8
X2.0Y-2.9
X2.0Y-3.0
X2.0Y-3.1
X2.0Y-3.2
X2.0Y-3.3
X2.0Y-3.4
X2.0Y-3.5
X2.0Y-3.6
X2.0Y-3.7
X2.0Y-3.8
X2.0Y-3.9
X2.0Y-4.0
X2.0Y-4.1
X2.0Y-4.2
X2.0Y-4.3
X2.0Y-4.4
X2.0Y-4.5
X2.0Y-4.6
X2.0Y-4.7
X2.0Y-4.8
X2.1Y-2.4
X2.1Y-2.5
X2.1Y-2.6
X2.1Y-2.7
X2.1Y-2.8
X2.1Y-2.9
X2.1Y-3.0
X2.1Y-3.1
X2.1Y-3.2
X2.1Y-3.3
X2.1Y-3.4
X2.1Y-3.5
X2.1Y-3.6
X2.1Y-3.7
X2.1Y-3.8
X2.1Y-3.9
X2.1Y-4.0
X2.1Y-4.1
X2.1Y-4.2
X2.1Y-4.3
X2.1Y-4.4
X2.1Y-4.5
X2.1Y-4.6
X2.1Y-4.7
X2.1Y-4.8
X7.125Y-2.0
X7.125Y-2.1
X7.125Y-2.2
X7.125Y-2.3
X7.125Y-2.4
X7.125Y-2.5
X7.125Y-2.6
X7.125Y-2.7
X7.125Y-2.8
X7.125Y-2.9
X7.125Y-3.0
X7.125Y-3.1
X7.125Y-3.2
X7.125Y-3.3
X7.125Y-3.4
X7.125Y-3.5
X7.125Y-3.6
X7.125Y-3.7
X7.125Y-3.8
X7.125Y-3.9
X7.125Y-4.0
X7.125Y-4.1
X7.125Y-4.2
X7.125Y-4.3
X7.125Y-4.4
X7.125Y-4.5
X7.125Y-4.6
X7.125Y-4.7
X7.125Y-4.8
X7.125Y-4.9
X7.125Y-5.0
X7.125Y-5.1
X7.225Y-2.0
X7.225Y-2.1
X7.225Y-2.2
X7.225Y-2.3
X7.225Y-2.4
X7.225Y-2.5
X7.225Y-2.6
X7.225Y-2.7
X7.225Y-2.8
X7.225Y-2.9
X7.225Y-3.0
X7.225Y-3.1
X7.225Y-3.2
X7.225Y-3.3
X7.225Y-3.4
X7.225Y-3.5
X7.225Y-3.6
X7.225Y-3.7
X7.225Y-3.8
X7.225Y-3.9
X7.225Y-4.0
X7.225Y-4.1
X7.225Y-4.2
X7.225Y-4.3
X7.225Y-4.4
X7.225Y-4.5
X7.225Y-4.6
X7.225Y-4.7
X7.225Y-4.8
X7.225Y-4.9
X7.225Y-5.0
X7.225Y-5.1
X7.325Y-2.0
X7.325Y-2.1
X7.325Y-2.2
X7.325Y-2.3
X7.325Y-2.4
X7.325Y-2.5
X7.325Y-2.6
X7.325Y-2.7
X7.325Y-2.8
X7.325Y-2.9
X7.325Y-3.0
X7.325Y-3.1
X7.325Y-3.2
X7.325Y-3.3
X7.325Y-3.4
X7.325Y-3.5
X7.325Y-3.6
X7.325Y-3.7
X7.325Y-3.8
X7.325Y-3.9
X7.325Y-4.0
X7.325Y-4.1
X7.325Y-4.2
X7.325Y-4.3
X7.325Y-4.4
X7.325Y-4.5
X7.325Y-4.6
X7.325Y-4.7
X7.325Y-4.8
X7.325Y-4.9
X7.325Y-5.0
X7.325Y-5.1
T4
X7.4431Y-1.8031
X7.4431Y-5.2969
T0
M30
